<?xml version="1.0" encoding="utf-8"?>
<!-- Generator: Adobe Illustrator 22.0.1, SVG Export Plug-In . SVG Version: 6.00 Build 0)  -->
<svg version="1.1" id="Layer_1" xmlns="http://www.w3.org/2000/svg" xmlns:xlink="http://www.w3.org/1999/xlink" x="0px" y="0px"
	 viewBox="0 0 60 60" style="enable-background:new 0 0 60 60;" xml:space="preserve">
<style type="text/css">
	.st0{fill:#E5E5E5;}
	.st1{fill:#FFFFFF;}
</style>
<path class="st0" d="M53.1,26c-1.1-3.6-4.4-6.3-8.2-6.3c-1.2,0-2.3,0.3-3.4,0.7c-1.9-2.8-5-4.3-8.6-4.3c-5.5,0-10,3.6-10.4,10.5h-1
	c-4,0-7.3,2.2-7.3,6c0,3.8,3.2,6,7.2,6h30.2c4,0,7.2-2.5,7.2-6.3C59,28.9,56.5,26.6,53.1,26z"/>
<path class="st1" d="M44.8,28.9c-1.2-4.1-4.9-7.1-9.2-7.1c-1.4,0-2.6,0.3-3.8,0.8c-2.1-3.2-5.7-4.9-9.6-4.9
	c-6.2,0-11.3,4.1-11.7,11.8H9.4c-4.5,0-8.1,2.5-8.1,6.7c0,4.3,3.6,6.7,8.1,6.7h33.9c4.5,0,8.1-2.9,8.1-7.1
	C51.4,32.2,48.6,29.6,44.8,28.9z"/>
</svg>
