<?xml version="1.0" encoding="utf-8"?>
<!-- Generator: Adobe Illustrator 16.0.0, SVG Export Plug-In . SVG Version: 6.00 Build 0)  -->
<!DOCTYPE svg PUBLIC "-//W3C//DTD SVG 1.1//EN" "http://www.w3.org/Graphics/SVG/1.1/DTD/svg11.dtd">
<svg version="1.1" id="Isolation_Mode" xmlns="http://www.w3.org/2000/svg" xmlns:xlink="http://www.w3.org/1999/xlink" x="0px"
	 y="0px" width="160px" height="60px" viewBox="-49 10 160 60" enable-background="new -49 10 160 60" xml:space="preserve">
<g>
	<path fill="#5B7885" d="M-48.585,20.571C-48.839,20.947-49,21.388-49,21.801v16.747c0,0.421,0.167,0.869,0.43,1.249l22.243-9.544
		L-48.585,20.571z"/>
	<path fill="#94AEBC" d="M-48.426,59.077c-0.736,0.314-0.736,0.826,0,1.14l20.532,8.779c0.735,0.315,1.926,0.31,2.658-0.014
		l19.897-8.752c0.338-0.148,0.645-0.427,0.879-0.758l-22.207-9.71L-48.426,59.077z"/>
	<path fill="#ED1C24" d="M-4.584,20.924c0.735-0.315,0.734-0.827,0-1.141l-20.533-8.78c-0.736-0.315-1.927-0.31-2.659,0.014
		l-19.897,8.751c-0.354,0.157-0.674,0.451-0.912,0.802l22.258,9.682L-4.584,20.924z"/>
	<path fill="#5B7885" d="M-4.012,41.447c0-0.398-0.146-0.822-0.386-1.189l-22.269,9.505l22.207,9.711
		c0.272-0.387,0.447-0.845,0.447-1.275V41.447z"/>
	<path fill="#94AEBC" d="M-5.339,39.417l-20.988-9.163l-22.243,9.543c0.237,0.342,0.55,0.629,0.898,0.782l21.006,9.184l22.269-9.505
		C-4.637,39.889-4.972,39.579-5.339,39.417"/>
	<path fill="#231916" d="M16.008,37.603c4.287,0,7.135-2.143,7.135-5.749v-0.051c0-3.3-2.521-4.612-6.554-5.494
		c-2.471-0.556-3.077-0.908-3.077-1.715v-0.05c0-0.656,0.58-1.134,1.765-1.134c1.379,0,2.913,0.453,4.363,1.353
		c0.001,0.001,0.002,0.001,0.003,0.001c0.388,0.207,0.822,0.035,1.075-0.322c0.001-0.002,0.003-0.002,0.004-0.005l1.941-2.742
		c-1.914-1.538-4.261-2.344-7.26-2.344c-4.235,0-6.831,2.37-6.831,5.647v0.05c0,3.605,2.899,4.664,6.653,5.52
		c2.421,0.581,3.001,0.96,3.001,1.716v0.05c0,0.756-0.706,1.208-2.043,1.208c-1.797,0-3.498-0.565-5.082-1.649
		c-0.009-0.006-0.02-0.01-0.028-0.017c-0.347-0.266-0.829-0.19-1.111,0.146l-2.223,2.656C9.933,36.619,12.882,37.603,16.008,37.603"
		/>
	<path fill="#231916" d="M57.951,19.998l-3.999,6.487l-4.004-6.497c-0.144-0.2-0.377-0.335-0.641-0.335h-4.733V37.3h4.789v-9.734
		c0-0.152,0.134-0.159,0.226-0.02c0.366,0.559,3.182,4.871,4.024,6.161c0-0.004,0-0.008,0-0.008c0.067,0.091,0.17,0.155,0.292,0.155
		c0.12,0,0.222-0.061,0.288-0.151c0.891-1.364,3.966-6.069,4.036-6.177c0.082-0.124,0.235-0.152,0.235,0.066V37.3h4.866V19.653
		h-4.73C58.328,19.653,58.094,19.791,57.951,19.998"/>
	<rect x="88.41" y="19.654" fill="#231916" width="4.89" height="17.647"/>
	<path fill="#231916" d="M71.22,27.566c0-0.153,0.134-0.159,0.225-0.02c0.367,0.559,3.181,4.868,4.023,6.16
		c0-0.003,0.002-0.007,0.002-0.007c0.067,0.091,0.17,0.155,0.292,0.155c0.12,0,0.222-0.062,0.285-0.15
		c0.892-1.362,3.968-6.07,4.037-6.178c0.083-0.124,0.239-0.151,0.239,0.066v9.708h4.864V19.653h-4.732
		c-0.269,0-0.501,0.135-0.646,0.34l-4,6.493l-4.007-6.503c-0.145-0.198-0.374-0.33-0.641-0.33h-4.729v17.648h4.788V27.566z"/>
	<path fill="#231916" d="M36.762,20.447v9.138c0,2.47-1.286,3.631-3.278,3.631c-1.966,0-3.252-1.209-3.252-3.755v-9.014
		c0-0.439-0.356-0.793-0.795-0.793h-4.147v9.908c0,5.52,3.152,8.064,8.144,8.064c5.017,0,8.27-2.521,8.27-8.191v-9.782h-4.147
		C37.116,19.654,36.762,20.008,36.762,20.447"/>
	<path fill="#231916" d="M111,23.146v-3.493H95.546v3.493c0,0.437,0.356,0.792,0.794,0.792h4.475V37.3h4.893V23.938h4.499
		C110.645,23.938,111,23.583,111,23.146"/>
	<path fill="#5B7885" d="M16.432,49.874c0,2.107,0.366,4.6,2.159,5.95l-1.009,1.208c-0.99-0.757-1.599-1.946-1.935-3.282
		c-0.353,1.384-0.959,2.622-2,3.41c-1.024-0.788-1.646-2.026-1.984-3.394c-0.335,1.302-0.926,2.46-1.87,3.216l-1.071-1.158
		c1.791-1.366,2.158-3.891,2.158-5.95v-2.896h1.553v2.896c0,1.56,0.208,3.603,1.215,5.082c1.008-1.446,1.2-3.458,1.2-5.082v-2.896
		h1.584V49.874z M21.215,45.74v14.525h-1.648v-8.011h-2.207v-1.416h2.207V45.74H21.215z"/>
	<path fill="#5B7885" d="M30.233,53.477h-6.846v-6.53h6.846V53.477z M30.634,55.006c0,1.864,1.889,3.457,4.67,3.907l-0.623,1.303
		c-2.257-0.401-4.047-1.496-4.896-3.056c-0.864,1.577-2.671,2.654-4.927,3.056l-0.624-1.303c2.784-0.435,4.687-2.026,4.687-3.907
		v-0.37h1.713V55.006z M28.634,48.281h-3.631v3.877h3.631V48.281z M34.551,55.438h-1.646V45.74h1.646V55.438z"/>
	<path fill="#5B7885" d="M51.749,58.398H38.662v-1.367h13.087V58.398z M50.467,54.201c-2.351-0.483-4.383-1.994-5.325-3.99
		c-0.944,1.996-2.977,3.507-5.328,3.99l-0.703-1.367c2.847-0.531,5.166-2.768,5.166-5.067v-1.094h1.744v1.094
		c0,2.316,2.319,4.553,5.167,5.067L50.467,54.201z"/>
	<path fill="#5B7885" d="M59.884,55.215c0.72-0.05,1.423-0.13,2.111-0.209l0.097,1.222c-3.087,0.514-6.496,0.563-9.119,0.563
		l-0.176-1.368c0.561,0,1.185,0,1.823-0.016V48.54h-1.438v-1.337h8.14v1.337h-1.438V55.215z M56.221,55.391
		c0.672-0.031,1.376-0.047,2.063-0.08V48.54h-2.063V55.391z M64.747,60.281h-1.649V45.74h1.649V60.281z"/>
	<path fill="#5B7885" d="M79.577,58.398H66.476v-1.367h13.102V58.398z M78.089,53.928H68.074v-6.917h9.902v1.353h-8.254v4.229h8.366
		V53.928z"/>
	<path fill="#5B7885" d="M93.021,55.149h-5.743v5.132H85.63v-5.132h-5.661V53.8h13.053V55.149z M91.822,52.432
		c-2.4-0.387-4.368-1.608-5.313-3.282c-0.927,1.69-2.926,2.896-5.325,3.282l-0.641-1.336c2.944-0.417,5.086-2.202,5.086-4.117
		v-0.771h1.744v0.771c0,1.882,2.176,3.7,5.088,4.117L91.822,52.432z"/>
	<path fill="#5B7885" d="M102.045,48.475h-8.526v-1.32h3.438v-1.495h1.648v1.495h3.439V48.475z M97.774,54.394
		c-2.08,0-3.504-1.063-3.504-2.638c0-1.592,1.424-2.654,3.504-2.654c2.078,0,3.503,1.063,3.503,2.654
		C101.277,53.331,99.853,54.394,97.774,54.394 M95.279,55.536h9.501v4.729h-1.647V56.87h-7.854V55.536z M97.774,53.123
		c1.15,0,1.934-0.515,1.934-1.367c0-0.868-0.783-1.383-1.934-1.383c-1.152,0-1.921,0.515-1.921,1.383
		C95.854,52.608,96.622,53.123,97.774,53.123 M106.828,51h-2.048v3.829h-1.647V45.74h1.647v3.893h2.048V51z"/>
	<path fill="#5B7885" d="M-48.585,20.571C-48.839,20.947-49,21.388-49,21.801v16.747c0,0.421,0.167,0.869,0.43,1.249l22.243-9.544
		L-48.585,20.571z"/>
	<path fill="#94AEBC" d="M-48.426,59.077c-0.736,0.314-0.736,0.826,0,1.14l20.532,8.779c0.735,0.315,1.926,0.31,2.658-0.014
		l19.897-8.752c0.338-0.148,0.645-0.427,0.879-0.758l-22.207-9.71L-48.426,59.077z"/>
	<path fill="#ED1C24" d="M-4.584,20.924c0.735-0.315,0.734-0.827,0-1.141l-20.533-8.78c-0.736-0.315-1.927-0.31-2.659,0.014
		l-19.897,8.751c-0.354,0.157-0.674,0.451-0.912,0.802l22.258,9.682L-4.584,20.924z"/>
	<path fill="#5B7885" d="M-4.012,41.447c0-0.398-0.146-0.822-0.386-1.189l-22.269,9.505l22.207,9.711
		c0.272-0.387,0.447-0.845,0.447-1.275V41.447z"/>
	<path fill="#94AEBC" d="M-5.339,39.417l-20.988-9.163l-22.243,9.543c0.237,0.342,0.55,0.629,0.898,0.782l21.006,9.184l22.269-9.505
		C-4.637,39.889-4.972,39.579-5.339,39.417"/>
	<path fill="#231916" d="M16.008,37.603c4.287,0,7.135-2.143,7.135-5.749v-0.051c0-3.3-2.521-4.612-6.554-5.494
		c-2.471-0.556-3.077-0.908-3.077-1.715v-0.05c0-0.656,0.58-1.134,1.765-1.134c1.379,0,2.913,0.453,4.363,1.353
		c0.001,0.001,0.002,0.001,0.003,0.001c0.388,0.207,0.822,0.035,1.075-0.322c0.001-0.002,0.003-0.002,0.004-0.005l1.941-2.742
		c-1.914-1.538-4.261-2.344-7.26-2.344c-4.235,0-6.831,2.37-6.831,5.647v0.05c0,3.605,2.899,4.664,6.653,5.52
		c2.421,0.581,3.001,0.96,3.001,1.716v0.05c0,0.756-0.706,1.208-2.043,1.208c-1.797,0-3.498-0.565-5.082-1.649
		c-0.009-0.006-0.02-0.01-0.028-0.017c-0.347-0.266-0.829-0.19-1.111,0.146l-2.223,2.656C9.933,36.619,12.882,37.603,16.008,37.603"
		/>
	<path fill="#231916" d="M57.951,19.998l-3.999,6.487l-4.004-6.497c-0.144-0.2-0.377-0.335-0.641-0.335h-4.733V37.3h4.789v-9.734
		c0-0.152,0.134-0.159,0.226-0.02c0.366,0.559,3.182,4.871,4.024,6.161c0-0.004,0-0.008,0-0.008c0.067,0.091,0.17,0.155,0.292,0.155
		c0.12,0,0.222-0.061,0.288-0.151c0.891-1.364,3.966-6.069,4.036-6.177c0.082-0.124,0.235-0.152,0.235,0.066V37.3h4.866V19.653
		h-4.73C58.328,19.653,58.094,19.791,57.951,19.998"/>
	<rect x="88.41" y="19.654" fill="#231916" width="4.89" height="17.647"/>
	<path fill="#231916" d="M71.22,27.566c0-0.153,0.134-0.159,0.225-0.02c0.367,0.559,3.181,4.868,4.023,6.16
		c0-0.003,0.002-0.007,0.002-0.007c0.067,0.091,0.17,0.155,0.292,0.155c0.12,0,0.222-0.062,0.285-0.15
		c0.892-1.362,3.968-6.07,4.037-6.178c0.083-0.124,0.239-0.151,0.239,0.066v9.708h4.864V19.653h-4.732
		c-0.269,0-0.501,0.135-0.646,0.34l-4,6.493l-4.007-6.503c-0.145-0.198-0.374-0.33-0.641-0.33h-4.729v17.648h4.788V27.566z"/>
	<path fill="#231916" d="M36.762,20.447v9.138c0,2.47-1.286,3.631-3.278,3.631c-1.966,0-3.252-1.209-3.252-3.755v-9.014
		c0-0.439-0.356-0.793-0.795-0.793h-4.147v9.908c0,5.52,3.152,8.064,8.144,8.064c5.017,0,8.27-2.521,8.27-8.191v-9.782h-4.147
		C37.116,19.654,36.762,20.008,36.762,20.447"/>
	<path fill="#231916" d="M111,23.146v-3.493H95.546v3.493c0,0.437,0.356,0.792,0.794,0.792h4.475V37.3h4.893V23.938h4.499
		C110.645,23.938,111,23.583,111,23.146"/>
</g>
</svg>
