<?xml version="1.0" encoding="utf-8"?>
<!-- Generator: Adobe Illustrator 16.0.0, SVG Export Plug-In . SVG Version: 6.00 Build 0)  -->
<!DOCTYPE svg PUBLIC "-//W3C//DTD SVG 1.1//EN" "http://www.w3.org/Graphics/SVG/1.1/DTD/svg11.dtd">
<svg version="1.1" id="Isolation_Mode" xmlns="http://www.w3.org/2000/svg" xmlns:xlink="http://www.w3.org/1999/xlink" x="0px"
	 y="0px" width="230px" height="30px" viewBox="-24 -3 230 30" enable-background="new -24 -3 230 30" xml:space="preserve">
<path fill="#5B7886" d="M141.08,7.833c0,2.808,0.49,6.128,2.88,7.929l-1.346,1.606c-1.321-1.008-2.134-2.594-2.581-4.37
	c-0.471,1.842-1.28,3.491-2.666,4.542c-1.364-1.051-2.195-2.7-2.645-4.519c-0.449,1.733-1.236,3.277-2.496,4.282l-1.431-1.541
	c2.391-1.822,2.881-5.186,2.881-7.929V3.977h2.069v3.856c0,2.078,0.277,4.799,1.62,6.773c1.345-1.93,1.6-4.609,1.6-6.773V3.977
	h2.111v3.856H141.08z M147.458,2.327v19.348h-2.198V11.003h-2.942V9.119h2.942V2.327H147.458z"/>
<path fill="#5B7886" d="M159.447,12.632h-9.128V3.933h9.128V12.632z M159.979,14.668c0,2.485,2.518,4.607,6.228,5.206l-0.832,1.735
	c-3.007-0.535-5.396-1.992-6.525-4.069c-1.15,2.098-3.563,3.534-6.57,4.069l-0.83-1.735c3.711-0.579,6.25-2.7,6.25-5.206v-0.493
	h2.283v0.493H159.979z M157.313,5.713h-4.842v5.163h4.842V5.713z M165.204,15.247h-2.193V2.328h2.193V15.247z"/>
<path fill="#5B7886" d="M187.637,14.861h-7.657v6.833h-2.196v-6.833h-7.552v-1.8h17.405V14.861z M186.037,11.239
	c-3.2-0.514-5.823-2.141-7.081-4.371c-1.237,2.25-3.903,3.856-7.101,4.371L171,9.461c3.924-0.556,6.783-2.935,6.783-5.483v-1.03
	h2.324v1.03c0,2.505,2.9,4.927,6.784,5.483L186.037,11.239z"/>
<path fill="#5B7886" d="M199.628,5.969H188.26V4.212h4.587V2.219h2.195v1.992h4.586V5.969L199.628,5.969z M193.936,13.854
	c-2.773,0-4.673-1.414-4.673-3.513c0-2.121,1.898-3.536,4.673-3.536c2.772,0,4.671,1.415,4.671,3.536
	C198.604,12.439,196.706,13.854,193.936,13.854 M190.606,15.376h12.67v6.298h-2.196v-4.521h-10.474V15.376L190.606,15.376z
	 M193.936,12.161c1.534,0,2.579-0.686,2.579-1.821c0-1.157-1.045-1.843-2.579-1.843c-1.537,0-2.562,0.686-2.562,1.843
	C191.374,11.475,192.398,12.161,193.936,12.161 M206.006,9.333h-2.729v5.098h-2.196V2.327h2.196v5.185h2.729V9.333z"/>
<path fill="#5B7886" d="M-23.784,2.146c-0.129,0.189-0.21,0.414-0.21,0.622v8.488c0,0.213,0.085,0.442,0.218,0.632l11.273-4.834
	L-23.784,2.146z"/>
<path fill="#95AFBC" d="M-23.705,21.661c-0.373,0.16-0.373,0.418,0,0.578l10.409,4.45c0.373,0.158,0.975,0.156,1.346-0.008
	l10.086-4.437c0.172-0.075,0.327-0.215,0.446-0.385l-11.257-4.92L-23.705,21.661z"/>
<path fill="#E60013" d="M-1.483,2.323c0.374-0.16,0.374-0.419,0-0.579L-11.89-2.704c-0.373-0.16-0.976-0.157-1.347,0.006
	l-10.084,4.436c-0.18,0.08-0.342,0.229-0.464,0.407l11.283,4.906L-1.483,2.323z"/>
<path fill="#5B7886" d="M-1.191,12.725c0-0.201-0.075-0.417-0.195-0.602l-11.289,4.817l11.257,4.92
	c0.139-0.193,0.227-0.426,0.227-0.646V12.725z"/>
<path fill="#95AFBC" d="M-1.864,11.696l-10.639-4.645l-11.273,4.838c0.12,0.173,0.28,0.318,0.455,0.396l10.647,4.655l11.288-4.817
	C-1.51,11.935-1.678,11.778-1.864,11.696"/>
<path d="M19.276,22.007c4.71,0,7.84-2.353,7.84-6.314v-0.058c0-3.626-2.771-5.068-7.203-6.038c-2.715-0.608-3.38-0.998-3.38-1.884
	V7.656c0-0.719,0.637-1.245,1.938-1.245c1.516,0,3.202,0.497,4.795,1.488C23.268,7.9,23.269,7.9,23.271,7.9
	c0.424,0.227,0.902,0.037,1.181-0.355c0.001-0.002,0.004-0.003,0.005-0.006l2.132-3.011c-2.104-1.69-4.682-2.578-7.979-2.578
	c-4.653,0-7.505,2.607-7.505,6.206v0.056c0,3.961,3.184,5.124,7.311,6.065c2.662,0.639,3.299,1.055,3.299,1.885v0.056
	c0,0.83-0.776,1.329-2.246,1.329c-1.975,0-3.844-0.623-5.585-1.813c-0.011-0.008-0.021-0.01-0.03-0.018
	c-0.382-0.295-0.913-0.208-1.22,0.161l-2.444,2.915C12.599,20.926,15.84,22.007,19.276,22.007"/>
<path d="M65.363,2.661L60.97,9.791l-4.4-7.139c-0.157-0.222-0.415-0.368-0.705-0.368h-5.202v19.391h5.266V10.979
	c0-0.17,0.146-0.176,0.247-0.023c0.4,0.615,3.495,5.355,4.42,6.771v-0.009c0.075,0.1,0.188,0.172,0.322,0.172
	c0.132,0,0.245-0.07,0.317-0.169c0.979-1.497,4.358-6.667,4.436-6.785c0.088-0.137,0.257-0.167,0.257,0.072v10.667h5.347V2.284
	h-5.197C65.779,2.284,65.521,2.434,65.363,2.661"/>
<rect x="98.832" y="2.284" width="5.375" height="19.391"/>
<path d="M79.943,10.978c0-0.169,0.147-0.176,0.248-0.023c0.403,0.615,3.495,5.352,4.422,6.77c0.001-0.003,0.001-0.008,0.001-0.008
	c0.073,0.101,0.186,0.171,0.319,0.171c0.132,0,0.243-0.067,0.316-0.166c0.978-1.496,4.359-6.669,4.435-6.786
	c0.092-0.138,0.261-0.168,0.261,0.072v10.667h5.345V2.284h-5.197c-0.295,0-0.553,0.148-0.711,0.373l-4.396,7.134l-4.403-7.144
	c-0.158-0.219-0.41-0.363-0.703-0.363h-5.198v19.391h5.261V10.978z"/>
<path d="M42.079,3.157v10.041c0,2.714-1.411,3.989-3.601,3.989c-2.161,0-3.573-1.329-3.573-4.128V3.157
	c0-0.482-0.391-0.872-0.875-0.872h-4.555V13.17c0,6.067,3.463,8.865,8.947,8.865c5.512,0,9.087-2.771,9.087-9.003V2.284h-4.559
	C42.471,2.284,42.079,2.674,42.079,3.157"/>
<path d="M123.657,6.12V2.282h-16.981V6.12c0,0.481,0.392,0.872,0.871,0.872h4.918v14.683h5.376V6.993h4.944
	C123.266,6.993,123.657,6.601,123.657,6.12"/>
</svg>
